# xmcd
#
# Track frame offsets:
# 150
# 1749
# 20469
# 38621
# 53711
# 67273
# 85367
# 107189
# 126891
# 144949
# 162521
# 181504
# 199582
#
# Disc length: 2985 seconds
#
#
# Revision: 0
# Processed by: cddbd v1.5.2PL0 Copyright (c) Steve Scherf et al.
# Submitted via: FreeRIP 2.945 
#
DISCID=a40ba70d
DTITLE=Montgomery Gentry - My Town
DYEAR=1900
DGENRE=Country
TTITLE0=My Town (Intro)
TTITLE1=My Town
TTITLE2=Break My Heart Again
TTITLE3=Scarecrow
TTITLE4=Bad For Good
TTITLE5=Speed
TTITLE6=Hell Yeah
TTITLE7=Lonesome
TTITLE8=Why Do I Feel Like Running
TTITLE9=Free Fall
TTITLE10=Lie Before You Leave
TTITLE11=For The Money
TTITLE12=Good Clean Fun
EXTD=
EXTT0=
EXTT1=
EXTT2=
EXTT3=
EXTT4=
EXTT5=
EXTT6=
EXTT7=
EXTT8=
EXTT9=
EXTT10=
EXTT11=
EXTT12=
PLAYORDER=
